<?xml version="1.0" encoding="utf-8"?>
<svg version="1.1" xmlns:xlink="http://www.w3.org/1999/xlink" width="31px" height="31px" xmlns="http://www.w3.org/2000/svg">
  <g transform="matrix(1 0 0 1 -989 -688 )">
    <path d="M 8.3996699669967 8.3996699669967  C 8.91122112211221 7.88811881188119  9.16699669966997 7.27084708470847  9.16699669966997 6.54785478547855  C 9.16699669966997 5.82486248624862  8.91122112211221 5.20759075907591  8.3996699669967 4.6960396039604  C 7.88811881188119 4.18448844884489  7.27084708470847 3.92871287128713  6.54785478547855 3.92871287128713  C 5.82486248624863 3.92871287128713  5.20759075907591 4.18448844884489  4.6960396039604 4.6960396039604  C 4.18448844884488 5.20759075907591  3.92871287128713 5.82486248624862  3.92871287128713 6.54785478547855  C 3.92871287128713 7.27084708470847  4.18448844884488 7.88811881188119  4.6960396039604 8.3996699669967  C 5.20759075907591 8.91122112211221  5.82486248624863 9.16699669966997  6.54785478547855 9.16699669966997  C 7.27084708470847 9.16699669966997  7.88811881188119 8.91122112211221  8.3996699669967 8.3996699669967  Z M 30.242904290429 16.4719471947195  C 30.7476347634763 17.0039603960396  31 17.6246424642464  31 18.3339933993399  C 31 19.0569856985699  30.7476347634763 19.6708470847085  30.242904290429 20.1755775577558  L 20.1960396039604 30.242904290429  C 19.6640264026403 30.7476347634763  19.0433443344334 31  18.3339933993399 31  C 17.61100110011 31  16.9971397139714 30.7476347634763  16.4924092409241 30.242904290429  L 1.86204620462046 15.5920792079208  C 1.34367436743674 15.0873487348735  0.903740374037404 14.3984598459846  0.542244224422442 13.5254125412541  C 0.180748074807481 12.6523652365237  0 11.8543454345435  0 11.1313531353135  L 0 2.61914191419142  C 0 1.90979097909791  0.259185918591859 1.2959295929593  0.777557755775578 0.777557755775576  C 1.2959295929593 0.259185918591856  1.90979097909791 0  2.61914191419142 0  L 11.1313531353135 0  C 11.8543454345435 0  12.6523652365237 0.180748074807478  13.5254125412541 0.542244224422442  C 14.3984598459846 0.903740374037401  15.0941694169417 1.34367436743674  15.6125412541254 1.86204620462046  L 30.242904290429 16.4719471947195  Z " fill-rule="nonzero" fill="#aaaaaa" stroke="none" transform="matrix(1 0 0 1 989 688 )" />
  </g>
</svg>