<?xml version="1.0" encoding="utf-8"?>
<svg version="1.1" xmlns:xlink="http://www.w3.org/1999/xlink" width="28px" height="28px" xmlns="http://www.w3.org/2000/svg">
  <g transform="matrix(1 0 0 1 -1373 -1580 )">
    <path d="M 27.3400673400673 20.9292929292929  C 27.7800224466891 21.3692480359147  28 21.9034792368126  28 22.5319865319865  C 28 23.1604938271605  27.7800224466891 23.6947250280584  27.3400673400673 24.1346801346801  L 24.1346801346801 27.3400673400673  C 23.6947250280584 27.7800224466891  23.1604938271605 28  22.5319865319865 28  C 21.9034792368126 28  21.3692480359147 27.7800224466891  20.9292929292929 27.3400673400673  L 14 20.4107744107744  L 7.07070707070707 27.3400673400673  C 6.6307519640853 27.7800224466891  6.09652076318743 28  5.46801346801347 28  C 4.83950617283951 28  4.30527497194164 27.7800224466891  3.86531986531987 27.3400673400673  L 0.65993265993266 24.1346801346801  C 0.219977553310887 23.6947250280584  0 23.1604938271605  0 22.5319865319865  C 0 21.9034792368126  0.219977553310887 21.3692480359147  0.65993265993266 20.9292929292929  L 7.58922558922559 14  L 0.65993265993266 7.07070707070707  C 0.219977553310887 6.6307519640853  0 6.09652076318743  0 5.46801346801347  C 0 4.83950617283951  0.219977553310887 4.30527497194163  0.65993265993266 3.86531986531987  L 3.86531986531987 0.65993265993266  C 4.30527497194164 0.219977553310886  4.83950617283951 0  5.46801346801347 0  C 6.09652076318743 0  6.6307519640853 0.219977553310886  7.07070707070707 0.65993265993266  L 14 7.58922558922559  L 20.9292929292929 0.65993265993266  C 21.3692480359147 0.219977553310886  21.9034792368126 0  22.5319865319865 0  C 23.1604938271605 0  23.6947250280584 0.219977553310886  24.1346801346801 0.65993265993266  L 27.3400673400673 3.86531986531987  C 27.7800224466891 4.30527497194163  28 4.83950617283951  28 5.46801346801347  C 28 6.09652076318743  27.7800224466891 6.6307519640853  27.3400673400673 7.07070707070707  L 20.4107744107744 14  L 27.3400673400673 20.9292929292929  Z " fill-rule="nonzero" fill="#000000" stroke="none" transform="matrix(1 0 0 1 1373 1580 )" />
  </g>
</svg>