<?xml version="1.0" encoding="utf-8"?>
<svg version="1.1" xmlns:xlink="http://www.w3.org/1999/xlink" width="9px" height="10px" xmlns="http://www.w3.org/2000/svg">
  <g transform="matrix(1 0 0 1 -333 -737 )">
    <path d="M 337.5 738  C 339.46 738  341 739.76  341 742  C 341 744.24  339.46 746  337.5 746  C 335.54 746  334 744.24  334 742  C 334 739.76  335.54 738  337.5 738  Z " fill-rule="nonzero" fill="#3ba0ff" stroke="none" />
    <path d="M 337.5 738  C 339.46 738  341 739.76  341 742  C 341 744.24  339.46 746  337.5 746  C 335.54 746  334 744.24  334 742  C 334 739.76  335.54 738  337.5 738  Z " stroke-width="2" stroke="#797979" fill="none" />
  </g>
</svg>