<?xml version="1.0" encoding="utf-8"?>
<svg version="1.1" xmlns:xlink="http://www.w3.org/1999/xlink" width="9px" height="10px" xmlns="http://www.w3.org/2000/svg">
  <g transform="matrix(1 0 0 1 -333 -925 )">
    <path d="M 337.5 926  C 339.46 926  341 927.76  341 930  C 341 932.24  339.46 934  337.5 934  C 335.54 934  334 932.24  334 930  C 334 927.76  335.54 926  337.5 926  Z " fill-rule="nonzero" fill="#f2637b" stroke="none" />
    <path d="M 337.5 926  C 339.46 926  341 927.76  341 930  C 341 932.24  339.46 934  337.5 934  C 335.54 934  334 932.24  334 930  C 334 927.76  335.54 926  337.5 926  Z " stroke-width="2" stroke="#797979" fill="none" />
  </g>
</svg>