<?xml version="1.0" encoding="utf-8"?>
<svg version="1.1" xmlns:xlink="http://www.w3.org/1999/xlink" width="9px" height="10px" xmlns="http://www.w3.org/2000/svg">
  <g transform="matrix(1 0 0 1 -333 -784 )">
    <path d="M 337.5 785  C 339.46 785  341 786.76  341 789  C 341 791.24  339.46 793  337.5 793  C 335.54 793  334 791.24  334 789  C 334 786.76  335.54 785  337.5 785  Z " fill-rule="nonzero" fill="#36cbcb" stroke="none" />
    <path d="M 337.5 785  C 339.46 785  341 786.76  341 789  C 341 791.24  339.46 793  337.5 793  C 335.54 793  334 791.24  334 789  C 334 786.76  335.54 785  337.5 785  Z " stroke-width="2" stroke="#797979" fill="none" />
  </g>
</svg>