<?xml version="1.0" encoding="utf-8"?>
<svg version="1.1" xmlns:xlink="http://www.w3.org/1999/xlink" width="9px" height="10px" xmlns="http://www.w3.org/2000/svg">
  <g transform="matrix(1 0 0 1 -333 -831 )">
    <path d="M 337.5 832  C 339.46 832  341 833.76  341 836  C 341 838.24  339.46 840  337.5 840  C 335.54 840  334 838.24  334 836  C 334 833.76  335.54 832  337.5 832  Z " fill-rule="nonzero" fill="#4dcb73" stroke="none" />
    <path d="M 337.5 832  C 339.46 832  341 833.76  341 836  C 341 838.24  339.46 840  337.5 840  C 335.54 840  334 838.24  334 836  C 334 833.76  335.54 832  337.5 832  Z " stroke-width="2" stroke="#797979" fill="none" />
  </g>
</svg>