<?xml version="1.0" encoding="utf-8"?>
<svg version="1.1" xmlns:xlink="http://www.w3.org/1999/xlink" width="9px" height="10px" xmlns="http://www.w3.org/2000/svg">
  <g transform="matrix(1 0 0 1 -333 -878 )">
    <path d="M 337.5 879  C 339.46 879  341 880.76  341 883  C 341 885.24  339.46 887  337.5 887  C 335.54 887  334 885.24  334 883  C 334 880.76  335.54 879  337.5 879  Z " fill-rule="nonzero" fill="#fad337" stroke="none" />
    <path d="M 337.5 879  C 339.46 879  341 880.76  341 883  C 341 885.24  339.46 887  337.5 887  C 335.54 887  334 885.24  334 883  C 334 880.76  335.54 879  337.5 879  Z " stroke-width="2" stroke="#797979" fill="none" />
  </g>
</svg>