<?xml version="1.0" encoding="utf-8"?>
<svg version="1.1" xmlns:xlink="http://www.w3.org/1999/xlink" width="9px" height="10px" xmlns="http://www.w3.org/2000/svg">
  <g transform="matrix(1 0 0 1 -333 -972 )">
    <path d="M 337.5 973  C 339.46 973  341 974.76  341 977  C 341 979.24  339.46 981  337.5 981  C 335.54 981  334 979.24  334 977  C 334 974.76  335.54 973  337.5 973  Z " fill-rule="nonzero" fill="#975fe4" stroke="none" />
    <path d="M 337.5 973  C 339.46 973  341 974.76  341 977  C 341 979.24  339.46 981  337.5 981  C 335.54 981  334 979.24  334 977  C 334 974.76  335.54 973  337.5 973  Z " stroke-width="2" stroke="#797979" fill="none" />
  </g>
</svg>