<?xml version="1.0" encoding="utf-8"?>
<svg version="1.1" xmlns:xlink="http://www.w3.org/1999/xlink" width="7px" height="8px" xmlns="http://www.w3.org/2000/svg">
  <defs>
    <mask fill="white" id="clip122">
      <path d="M 0 4  C 0 6.2091389992  1.5670033757 8  3.5 8  C 5.4329966243 8  7 6.2091389992  7 4  C 7 1.7908610008  5.4329966243 0  3.5 0  C 1.5670033757 0  0 1.7908610008  0 4  Z " fill-rule="evenodd" />
    </mask>
  </defs>
  <g transform="matrix(1 0 0 1 -659 -459 )">
    <path d="M 0 4  C 0 6.2091389992  1.5670033757 8  3.5 8  C 5.4329966243 8  7 6.2091389992  7 4  C 7 1.7908610008  5.4329966243 0  3.5 0  C 1.5670033757 0  0 1.7908610008  0 4  Z " fill-rule="nonzero" fill="#f6bd16" stroke="none" transform="matrix(1 0 0 1 659 459 )" />
    <path d="M 0 4  C 0 6.2091389992  1.5670033757 8  3.5 8  C 5.4329966243 8  7 6.2091389992  7 4  C 7 1.7908610008  5.4329966243 0  3.5 0  C 1.5670033757 0  0 1.7908610008  0 4  Z " stroke-width="2" stroke="#797979" fill="none" transform="matrix(1 0 0 1 659 459 )" mask="url(#clip122)" />
  </g>
</svg>