<?xml version="1.0" encoding="utf-8"?>
<svg version="1.1" xmlns:xlink="http://www.w3.org/1999/xlink" width="83px" height="70px" xmlns="http://www.w3.org/2000/svg">
  <defs>
    <mask fill="white" id="clip93">
      <path d="M 82.0373756884071 0.00446690982844775  C 82.0373756884071 0.00446690982844775  83 0  83 0  L 82.9994049412921 46.0488839069218  C 82.9994049412921 46.0488839069218  82.0321716836409 46.0577619989035  82.0321716836409 46.0577619989035  C 62.7571540469775 46.3832048153766  45.5640506294944 55.6273048546804  34.0923683801989 70  C 34.0923683801989 70  0 40.647851261197  0 40.647851261197  C 20.2595271701655 15.1606851032338  50.2878848852738 0.299148916938556  82.0373756884071 0.00446690982844775  Z " fill-rule="evenodd" />
    </mask>
  </defs>
  <g transform="matrix(1 0 0 1 -443 -338 )">
    <path d="M 82.0373756884071 0.00446690982844775  C 82.0373756884071 0.00446690982844775  83 0  83 0  L 82.9994049412921 46.0488839069218  C 82.9994049412921 46.0488839069218  82.0321716836409 46.0577619989035  82.0321716836409 46.0577619989035  C 62.7571540469775 46.3832048153766  45.5640506294944 55.6273048546804  34.0923683801989 70  C 34.0923683801989 70  0 40.647851261197  0 40.647851261197  C 20.2595271701655 15.1606851032338  50.2878848852738 0.299148916938556  82.0373756884071 0.00446690982844775  Z " fill-rule="nonzero" fill="#5d7092" stroke="none" transform="matrix(1 0 0 1 443 338 )" />
    <path d="M 82.0373756884071 0.00446690982844775  C 82.0373756884071 0.00446690982844775  83 0  83 0  L 82.9994049412921 46.0488839069218  C 82.9994049412921 46.0488839069218  82.0321716836409 46.0577619989035  82.0321716836409 46.0577619989035  C 62.7571540469775 46.3832048153766  45.5640506294944 55.6273048546804  34.0923683801989 70  C 34.0923683801989 70  0 40.647851261197  0 40.647851261197  C 20.2595271701655 15.1606851032338  50.2878848852738 0.299148916938556  82.0373756884071 0.00446690982844775  Z " stroke-width="2" stroke="#797979" fill="none" transform="matrix(1 0 0 1 443 338 )" mask="url(#clip93)" />
  </g>
</svg>