<?xml version="1.0" encoding="utf-8"?>
<svg version="1.1" xmlns:xlink="http://www.w3.org/1999/xlink" width="17px" height="47px" xmlns="http://www.w3.org/2000/svg">
  <defs>
    <mask fill="white" id="clip94">
      <path d="M 15.85379497448 0.00617283107472546  C 15.85379497448 0.00617283107472546  17 0  17 0  L 16.9994361250387 46.1874579928434  C 16.9994361250387 46.1874579928434  16.1247626081287 46.1946727127911  16.1247626081287 46.1946727127911  C 13.2448555941726 46.2379448465543  10.4105820020186 46.4752676098738  7.63372417534864 46.8945094999403  C 7.63372417534864 46.8945094999403  6.98377449102079 47  6.98377449102079 47  L 0 1.36812818200526  C 5.21119277755045 0.523768027582421  10.5082395760887 0.0637551673131884  15.85379497448 0.00617283107472546  Z " fill-rule="evenodd" />
    </mask>
  </defs>
  <g transform="matrix(1 0 0 1 -510 -338 )">
    <path d="M 15.85379497448 0.00617283107472546  C 15.85379497448 0.00617283107472546  17 0  17 0  L 16.9994361250387 46.1874579928434  C 16.9994361250387 46.1874579928434  16.1247626081287 46.1946727127911  16.1247626081287 46.1946727127911  C 13.2448555941726 46.2379448465543  10.4105820020186 46.4752676098738  7.63372417534864 46.8945094999403  C 7.63372417534864 46.8945094999403  6.98377449102079 47  6.98377449102079 47  L 0 1.36812818200526  C 5.21119277755045 0.523768027582421  10.5082395760887 0.0637551673131884  15.85379497448 0.00617283107472546  Z " fill-rule="nonzero" fill="#f6bd16" stroke="none" transform="matrix(1 0 0 1 510 338 )" />
    <path d="M 15.85379497448 0.00617283107472546  C 15.85379497448 0.00617283107472546  17 0  17 0  L 16.9994361250387 46.1874579928434  C 16.9994361250387 46.1874579928434  16.1247626081287 46.1946727127911  16.1247626081287 46.1946727127911  C 13.2448555941726 46.2379448465543  10.4105820020186 46.4752676098738  7.63372417534864 46.8945094999403  C 7.63372417534864 46.8945094999403  6.98377449102079 47  6.98377449102079 47  L 0 1.36812818200526  C 5.21119277755045 0.523768027582421  10.5082395760887 0.0637551673131884  15.85379497448 0.00617283107472546  Z " stroke-width="2" stroke="#797979" fill="none" transform="matrix(1 0 0 1 510 338 )" mask="url(#clip94)" />
  </g>
</svg>