<?xml version="1.0" encoding="utf-8"?>
<svg version="1.1" xmlns:xlink="http://www.w3.org/1999/xlink" width="187px" height="184px" xmlns="http://www.w3.org/2000/svg">
  <defs>
    <mask fill="white" id="clip60">
      <path d="M 23.7179988906778 1.40942571977655  C 23.7179988906778 1.40942571977655  24.8222261551923 0  24.8222261551923 0  C 24.8222261551923 0  59.0516819619357 29.4218450301668  59.0516819619357 29.4218450301668  C 49.8455991411906 40.9369019555095  44.3095629891462 55.7360691431505  44.3095629891462 71.8794557422896  C 44.3095629891462 108.587488492623  72.9336632183685 138.345228631414  108.24328027136 138.345228631414  C 126.669588692034 138.345228631414  143.275250559336 130.241393363629  154.942492330845 117.274973876791  C 154.942492330845 117.274973876791  187 148.551467060781  187 148.551467060781  C 147.015476200902 192.790161064611  80.4471238093342 196.051796750227  36.632996693982 155.918967776996  C -6.7429891502167 116.187467093496  -12.3013951740314 48.1375346978942  23.7179988906778 1.40942571977655  Z " fill-rule="evenodd" />
    </mask>
  </defs>
  <g transform="matrix(1 0 0 1 -418 -379 )">
    <path d="M 23.7179988906778 1.40942571977655  C 23.7179988906778 1.40942571977655  24.8222261551923 0  24.8222261551923 0  C 24.8222261551923 0  59.0516819619357 29.4218450301668  59.0516819619357 29.4218450301668  C 49.8455991411906 40.9369019555095  44.3095629891462 55.7360691431505  44.3095629891462 71.8794557422896  C 44.3095629891462 108.587488492623  72.9336632183685 138.345228631414  108.24328027136 138.345228631414  C 126.669588692034 138.345228631414  143.275250559336 130.241393363629  154.942492330845 117.274973876791  C 154.942492330845 117.274973876791  187 148.551467060781  187 148.551467060781  C 147.015476200902 192.790161064611  80.4471238093342 196.051796750227  36.632996693982 155.918967776996  C -6.7429891502167 116.187467093496  -12.3013951740314 48.1375346978942  23.7179988906778 1.40942571977655  Z " fill-rule="nonzero" fill="#5ad8a6" stroke="none" transform="matrix(1 0 0 1 418 379 )" />
    <path d="M 23.7179988906778 1.40942571977655  C 23.7179988906778 1.40942571977655  24.8222261551923 0  24.8222261551923 0  C 24.8222261551923 0  59.0516819619357 29.4218450301668  59.0516819619357 29.4218450301668  C 49.8455991411906 40.9369019555095  44.3095629891462 55.7360691431505  44.3095629891462 71.8794557422896  C 44.3095629891462 108.587488492623  72.9336632183685 138.345228631414  108.24328027136 138.345228631414  C 126.669588692034 138.345228631414  143.275250559336 130.241393363629  154.942492330845 117.274973876791  C 154.942492330845 117.274973876791  187 148.551467060781  187 148.551467060781  C 147.015476200902 192.790161064611  80.4471238093342 196.051796750227  36.632996693982 155.918967776996  C -6.7429891502167 116.187467093496  -12.3013951740314 48.1375346978942  23.7179988906778 1.40942571977655  Z " stroke-width="2" stroke="#797979" fill="none" transform="matrix(1 0 0 1 418 379 )" mask="url(#clip60)" />
  </g>
</svg>