<?xml version="1.0" encoding="utf-8"?>
<svg version="1.1" xmlns:xlink="http://www.w3.org/1999/xlink" width="109px" height="191px" xmlns="http://www.w3.org/2000/svg">
  <defs>
    <mask fill="white" id="clip129">
      <path d="M 0 46.5726327132661  C 0 46.5726327132661  0 0  0 0  C 43.4629008505585 0  82.7717945054761 26.860156945209  100.032993899144 68.3535369735344  C 117.121581298875 109.431983201577  109.367373419073 157.078752135692  80.3418535315021 190.006710322647  C 80.3418535315021 190.006710322647  79.4557850418538 191  79.4557850418538 191  C 79.4557850418538 191  47.1496413734976 159.440796264227  47.1496413734976 159.440796264227  C 57.9225779643406 147.453230308421  64.517430944791 131.346856182861  64.517430944791 113.637218150483  C 64.517430944791 76.9688547396579  36.244632148163 47.173845138195  1.15167404550928 46.5816117825069  C 1.15167404550928 46.5816117825069  0 46.5726327132661  0 46.5726327132661  Z " fill-rule="evenodd" />
    </mask>
  </defs>
  <g transform="matrix(1 0 0 1 -526 -338 )">
    <path d="M 0 46.5726327132661  C 0 46.5726327132661  0 0  0 0  C 43.4629008505585 0  82.7717945054761 26.860156945209  100.032993899144 68.3535369735344  C 117.121581298875 109.431983201577  109.367373419073 157.078752135692  80.3418535315021 190.006710322647  C 80.3418535315021 190.006710322647  79.4557850418538 191  79.4557850418538 191  C 79.4557850418538 191  47.1496413734976 159.440796264227  47.1496413734976 159.440796264227  C 57.9225779643406 147.453230308421  64.517430944791 131.346856182861  64.517430944791 113.637218150483  C 64.517430944791 76.9688547396579  36.244632148163 47.173845138195  1.15167404550928 46.5816117825069  C 1.15167404550928 46.5816117825069  0 46.5726327132661  0 46.5726327132661  Z " fill-rule="nonzero" fill="#5b8ff9" stroke="none" transform="matrix(1 0 0 1 526 338 )" />
    <path d="M 0 46.5726327132661  C 0 46.5726327132661  0 0  0 0  C 43.4629008505585 0  82.7717945054761 26.860156945209  100.032993899144 68.3535369735344  C 117.121581298875 109.431983201577  109.367373419073 157.078752135692  80.3418535315021 190.006710322647  C 80.3418535315021 190.006710322647  79.4557850418538 191  79.4557850418538 191  C 79.4557850418538 191  47.1496413734976 159.440796264227  47.1496413734976 159.440796264227  C 57.9225779643406 147.453230308421  64.517430944791 131.346856182861  64.517430944791 113.637218150483  C 64.517430944791 76.9688547396579  36.244632148163 47.173845138195  1.15167404550928 46.5816117825069  C 1.15167404550928 46.5816117825069  0 46.5726327132661  0 46.5726327132661  Z " stroke-width="2" stroke="#797979" fill="none" transform="matrix(1 0 0 1 526 338 )" mask="url(#clip129)" />
  </g>
</svg>