<?xml version="1.0" encoding="utf-8"?>
<svg version="1.1" xmlns:xlink="http://www.w3.org/1999/xlink" width="18px" height="21px" xmlns="http://www.w3.org/2000/svg">
  <g transform="matrix(1 0 0 1 -1071 -765 )">
    <path d="M 17.625 1.5  L 16.5 1.5  C 16.5 3.5390625  16.083984375 5.341796875  15.251953125 6.908203125  C 14.419921875 8.474609375  13.37890625 9.671875  12.12890625 10.5  C 13.37890625 11.328125  14.419921875 12.525390625  15.251953125 14.091796875  C 16.083984375 15.658203125  16.5 17.4609375  16.5 19.5  L 17.625 19.5  C 17.734375 19.5  17.82421875 19.53515625  17.89453125 19.60546875  C 17.96484375 19.67578125  18 19.765625  18 19.875  L 18 20.625  C 18 20.734375  17.96484375 20.82421875  17.89453125 20.89453125  C 17.82421875 20.96484375  17.734375 21  17.625 21  L 0.375 21  C 0.265625 21  0.17578125 20.96484375  0.10546875 20.89453125  C 0.03515625 20.82421875  0 20.734375  0 20.625  L 0 19.875  C 0 19.765625  0.03515625 19.67578125  0.10546875 19.60546875  C 0.17578125 19.53515625  0.265625 19.5  0.375 19.5  L 1.5 19.5  C 1.5 17.4609375  1.916015625 15.658203125  2.748046875 14.091796875  C 3.580078125 12.525390625  4.62109375 11.328125  5.87109375 10.5  C 4.62109375 9.671875  3.580078125 8.474609375  2.748046875 6.908203125  C 1.916015625 5.341796875  1.5 3.5390625  1.5 1.5  L 0.375 1.5  C 0.265625 1.5  0.17578125 1.46484375  0.10546875 1.39453125  C 0.03515625 1.32421875  0 1.234375  0 1.125  L 0 0.375000000000001  C 0 0.265624999999998  0.03515625 0.17578125  0.10546875 0.105468749999999  C 0.17578125 0.035156249999999  0.265625 0  0.375 0  L 17.625 0  C 17.734375 0  17.82421875 0.035156249999999  17.89453125 0.105468749999999  C 17.96484375 0.17578125  18 0.265624999999998  18 0.375000000000001  L 18 1.125  C 18 1.234375  17.96484375 1.32421875  17.89453125 1.39453125  C 17.82421875 1.46484375  17.734375 1.5  17.625 1.5  Z M 9.884765625 10.072265625  C 9.974609375 9.943359375  10.09375 9.8515625  10.2421875 9.796875  C 10.84375 9.5703125  11.42578125 9.208984375  11.98828125 8.712890625  C 12.55078125 8.216796875  13.056640625 7.62109375  13.505859375 6.92578125  C 13.955078125 6.23046875  14.31640625 5.41015625  14.58984375 4.46484375  C 14.86328125 3.51953125  15 2.53125  15 1.5  L 3 1.5  C 3 2.53125  3.13671875 3.51953125  3.41015625 4.46484375  C 3.68359375 5.41015625  4.044921875 6.23046875  4.494140625 6.92578125  C 4.943359375 7.62109375  5.44921875 8.216796875  6.01171875 8.712890625  C 6.57421875 9.208984375  7.15625 9.5703125  7.7578125 9.796875  C 7.90625 9.8515625  8.025390625 9.943359375  8.115234375 10.072265625  C 8.205078125 10.201171875  8.25 10.34375  8.25 10.5  C 8.25 10.65625  8.205078125 10.798828125  8.115234375 10.927734375  C 8.025390625 11.056640625  7.90625 11.1484375  7.7578125 11.203125  C 6.6875 11.6015625  5.734375 12.3671875  4.8984375 13.5  L 13.1015625 13.5  C 12.265625 12.3671875  11.3125 11.6015625  10.2421875 11.203125  C 10.09375 11.1484375  9.974609375 11.056640625  9.884765625 10.927734375  C 9.794921875 10.798828125  9.75 10.65625  9.75 10.5  C 9.75 10.34375  9.794921875 10.201171875  9.884765625 10.072265625  Z " fill-rule="nonzero" fill="#ffd100" stroke="none" transform="matrix(1 0 0 1 1071 765 )" />
  </g>
</svg>