<?xml version="1.0" encoding="utf-8"?>
<svg version="1.1" xmlns:xlink="http://www.w3.org/1999/xlink" width="23px" height="23px" xmlns="http://www.w3.org/2000/svg">
  <g transform="matrix(1 0 0 1 -1071 -834 )">
    <path d="M 22.4833984375 13.5589192708333  C 22.5782335069444 13.6537543402778  22.6256510416667 13.7660590277778  22.6256510416667 13.8958333333333  C 22.6256510416667 13.9457465277778  22.6206597222222 13.9806857638889  22.6106770833333 14.0006510416667  C 21.9717881944444 16.6759982638889  20.6341145833333 18.8447265625  18.59765625 20.5068359375  C 16.5611979166667 22.1689453125  14.1753472222222 23  11.4401041666667 23  C 9.98263888888889 23  8.57259114583333 22.7254774305556  7.2099609375 22.1764322916667  C 5.84733072916667 21.6273871527778  4.63194444444445 20.84375  3.56380208333333 19.8255208333333  L 1.63216145833333 21.7571614583333  C 1.44249131944444 21.9468315972222  1.21788194444444 22.0416666666667  0.958333333333333 22.0416666666667  C 0.698784722222222 22.0416666666667  0.474175347222222 21.9468315972222  0.284505208333333 21.7571614583333  C 0.0948350694444444 21.5674913194444  0 21.3428819444444  0 21.0833333333333  L 0 14.375  C 0 14.1154513888889  0.0948350694444444 13.8908420138889  0.284505208333333 13.701171875  C 0.474175347222222 13.5115017361111  0.698784722222222 13.4166666666667  0.958333333333333 13.4166666666667  L 7.66666666666667 13.4166666666667  C 7.92621527777778 13.4166666666667  8.15082465277778 13.5115017361111  8.34049479166667 13.701171875  C 8.53016493055556 13.8908420138889  8.625 14.1154513888889  8.625 14.375  C 8.625 14.6345486111111  8.53016493055556 14.8591579861111  8.34049479166667 15.048828125  L 6.2890625 17.1002604166667  C 6.99782986111111 17.7591145833333  7.80143229166667 18.2682291666667  8.69986979166667 18.6276041666667  C 9.59830729166667 18.9869791666667  10.5316840277778 19.1666666666667  11.5 19.1666666666667  C 12.8376736111111 19.1666666666667  14.0855034722222 18.8422309027778  15.2434895833333 18.193359375  C 16.4014756944444 17.5444878472222  17.3298611111111 16.6510416666667  18.0286458333333 15.5130208333333  C 18.1384548611111 15.3433159722222  18.4029947916667 14.7593315972222  18.822265625 13.7610677083333  C 18.9021267361111 13.5314670138889  19.0518663194444 13.4166666666667  19.271484375 13.4166666666667  L 22.146484375 13.4166666666667  C 22.2762586805556 13.4166666666667  22.3885633680556 13.4640842013889  22.4833984375 13.5589192708333  Z M 22.7154947916667 1.24283854166667  C 22.9051649305556 1.43250868055555  23 1.65711805555555  23 1.91666666666667  L 23 8.625  C 23 8.88454861111111  22.9051649305556 9.10915798611111  22.7154947916667 9.298828125  C 22.5258246527778 9.48849826388889  22.3012152777778 9.58333333333333  22.0416666666667 9.58333333333333  L 15.3333333333333 9.58333333333333  C 15.0737847222222 9.58333333333333  14.8491753472222 9.48849826388889  14.6595052083333 9.298828125  C 14.4698350694444 9.10915798611111  14.375 8.88454861111111  14.375 8.625  C 14.375 8.36545138888889  14.4698350694444 8.14084201388889  14.6595052083333 7.951171875  L 16.7259114583333 5.884765625  C 15.2484809027778 4.51714409722222  13.5065104166667 3.83333333333333  11.5 3.83333333333333  C 10.1623263888889 3.83333333333333  8.91449652777778 4.15776909722222  7.75651041666667 4.806640625  C 6.59852430555556 5.45551215277778  5.67013888888889 6.34895833333333  4.97135416666667 7.48697916666667  C 4.86154513888889 7.65668402777778  4.59700520833333 8.24066840277778  4.177734375 9.23893229166667  C 4.09787326388889 9.46853298611111  3.94813368055556 9.58333333333333  3.728515625 9.58333333333333  L 0.748697916666667 9.58333333333333  C 0.618923611111111 9.58333333333333  0.506618923611111 9.53591579861111  0.411783854166667 9.44108072916667  C 0.316948784722222 9.34624565972222  0.26953125 9.23394097222222  0.26953125 9.10416666666667  L 0.26953125 8.99934895833333  C 0.918402777777778 6.32400173611111  2.26605902777778 4.1552734375  4.3125 2.4931640625  C 6.35894097222222 0.8310546875  8.75477430555556 0  11.5 0  C 12.9574652777778 0  14.375 0.277018229166668  15.7526041666667 0.8310546875  C 17.1302083333333 1.38509114583333  18.3530815972222 2.16623263888889  19.4212239583333 3.17447916666667  L 21.3678385416667 1.24283854166667  C 21.5575086805556 1.05316840277778  21.7821180555556 0.958333333333332  22.0416666666667 0.958333333333332  C 22.3012152777778 0.958333333333332  22.5258246527778 1.05316840277778  22.7154947916667 1.24283854166667  Z " fill-rule="nonzero" fill="#f59a23" stroke="none" transform="matrix(1 0 0 1 1071 834 )" />
  </g>
</svg>