<?xml version="1.0" encoding="utf-8"?>
<svg version="1.1" xmlns:xlink="http://www.w3.org/1999/xlink" width="10px" height="18px" preserveAspectRatio="xMidYMin meet" viewBox="1941 385  8 18" xmlns="http://www.w3.org/2000/svg">
  <path d="M 1728 400.5  L 1865 400.5  A 5 5 0 0 0 1870.5 395.5 A 5 5 0 0 1 1875.5 390.5 L 1940 390.5  A 5 5 0 0 1 1945.5 395.5 L 1945.5 403  " stroke-width="1" stroke="#ff3399" fill="none" />
  <path d="M 1730 397.5  A 3 3 0 0 0 1727 400.5 A 3 3 0 0 0 1730 403.5 A 3 3 0 0 0 1733 400.5 A 3 3 0 0 0 1730 397.5 Z " fill-rule="nonzero" fill="#ff3399" stroke="none" />
</svg>