<?xml version="1.0" encoding="utf-8"?>
<svg version="1.1" xmlns:xlink="http://www.w3.org/1999/xlink" width="128px" height="31px" xmlns="http://www.w3.org/2000/svg">
  <defs>
    <mask fill="white" id="clip130">
      <path d="M 0 21  L 0 0  L 42.0819672131147 0  L 118 0  L 118 21  L 0 21  Z " fill-rule="evenodd" />
    </mask>
    <filter x="1052px" y="404px" width="128px" height="31px" filterUnits="userSpaceOnUse" id="filter131">
      <feOffset dx="5" dy="5" in="SourceAlpha" result="shadowOffsetInner" />
      <feGaussianBlur stdDeviation="2.5" in="shadowOffsetInner" result="shadowGaussian" />
      <feComposite in2="shadowGaussian" operator="atop" in="SourceAlpha" result="shadowComposite" />
      <feColorMatrix type="matrix" values="0 0 0 0 0  0 0 0 0 0  0 0 0 0 0  0 0 0 0.349019607843137 0  " in="shadowComposite" />
    </filter>
    <g id="widget132">
      <path d="M 0 21  L 0 0  L 42.0819672131147 0  L 118 0  L 118 21  L 0 21  Z " fill-rule="nonzero" fill="#ffffff" stroke="none" transform="matrix(1 0 0 1 1052 404 )" />
      <path d="M 0 21  L 0 0  L 42.0819672131147 0  L 118 0  L 118 21  L 0 21  Z " stroke-width="2" stroke="#797979" fill="none" transform="matrix(1 0 0 1 1052 404 )" mask="url(#clip130)" />
    </g>
  </defs>
  <g transform="matrix(1 0 0 1 -1052 -404 )">
    <use xlink:href="#widget132" filter="url(#filter131)" />
    <use xlink:href="#widget132" />
  </g>
</svg>