<?xml version="1.0" encoding="utf-8"?>
<svg version="1.1" xmlns:xlink="http://www.w3.org/1999/xlink" width="22px" height="22px" xmlns="http://www.w3.org/2000/svg">
  <g transform="matrix(1 0 0 1 -1014 -445 )">
    <path d="M 16.1848958333333 14.8958333333333  C 16.3663194444444 14.7144097222222  16.45703125 14.4947916666667  16.45703125 14.2369791666667  C 16.45703125 13.9887152777778  16.3663194444444 13.7738715277778  16.1848958333333 13.5924479166667  L 13.5924479166667 11  L 16.1848958333333 8.40755208333333  C 16.3663194444444 8.22612847222222  16.45703125 8.01128472222222  16.45703125 7.76302083333333  C 16.45703125 7.50520833333333  16.3663194444444 7.28559027777778  16.1848958333333 7.10416666666667  L 14.8958333333333 5.81510416666667  C 14.7144097222222 5.63368055555555  14.4947916666667 5.54296875  14.2369791666667 5.54296875  C 13.9887152777778 5.54296875  13.7738715277778 5.63368055555555  13.5924479166667 5.81510416666667  L 11 8.40755208333333  L 8.40755208333333 5.81510416666667  C 8.22612847222222 5.63368055555555  8.01128472222222 5.54296875  7.76302083333333 5.54296875  C 7.50520833333333 5.54296875  7.28559027777778 5.63368055555555  7.10416666666667 5.81510416666667  L 5.81510416666667 7.10416666666667  C 5.63368055555556 7.28559027777778  5.54296875 7.50520833333333  5.54296875 7.76302083333333  C 5.54296875 8.01128472222222  5.63368055555556 8.22612847222222  5.81510416666667 8.40755208333333  L 8.40755208333333 11  L 5.81510416666667 13.5924479166667  C 5.63368055555556 13.7738715277778  5.54296875 13.9887152777778  5.54296875 14.2369791666667  C 5.54296875 14.4947916666667  5.63368055555556 14.7144097222222  5.81510416666667 14.8958333333333  L 7.10416666666667 16.1848958333333  C 7.28559027777778 16.3663194444444  7.50520833333333 16.45703125  7.76302083333333 16.45703125  C 8.01128472222222 16.45703125  8.22612847222222 16.3663194444444  8.40755208333333 16.1848958333333  L 11 13.5924479166667  L 13.5924479166667 16.1848958333333  C 13.7738715277778 16.3663194444444  13.9887152777778 16.45703125  14.2369791666667 16.45703125  C 14.4947916666667 16.45703125  14.7144097222222 16.3663194444444  14.8958333333333 16.1848958333333  L 16.1848958333333 14.8958333333333  Z M 20.5247395833333 5.478515625  C 21.5082465277778 7.16384548611111  22 9.00434027777778  22 11  C 22 12.9956597222222  21.5082465277778 14.8361545138889  20.5247395833333 16.521484375  C 19.5412326388889 18.2068142361111  18.2068142361111 19.5412326388889  16.521484375 20.5247395833333  C 14.8361545138889 21.5082465277778  12.9956597222222 22  11 22  C 9.00434027777778 22  7.16384548611111 21.5082465277778  5.478515625 20.5247395833333  C 3.79318576388889 19.5412326388889  2.45876736111111 18.2068142361111  1.47526041666667 16.521484375  C 0.491753472222222 14.8361545138889  0 12.9956597222222  0 11  C 0 9.00434027777778  0.491753472222222 7.16384548611111  1.47526041666667 5.478515625  C 2.45876736111111 3.79318576388889  3.79318576388889 2.45876736111111  5.478515625 1.47526041666667  C 7.16384548611111 0.49175347222222  9.00434027777778 0  11 0  C 12.9956597222222 0  14.8361545138889 0.49175347222222  16.521484375 1.47526041666667  C 18.2068142361111 2.45876736111111  19.5412326388889 3.79318576388889  20.5247395833333 5.478515625  Z " fill-rule="nonzero" fill="#d9001b" stroke="none" transform="matrix(1 0 0 1 1014 445 )" />
  </g>
</svg>