<?xml version="1.0" encoding="utf-8"?>
<svg version="1.1" xmlns:xlink="http://www.w3.org/1999/xlink" width="29px" height="29px" xmlns="http://www.w3.org/2000/svg">
  <g transform="matrix(1 0 0 1 -280 -330 )">
    <path d="M 7.2216796875 1.94466145833333  C 9.44325086805556 0.648220486111109  11.8693576388889 0  14.5 0  C 17.1306423611111 0  19.5567491319444 0.648220486111109  21.7783203125 1.94466145833333  C 23.9998914930556 3.24110243055555  25.7588975694444 5.00010850694444  27.0553385416667 7.2216796875  C 28.3517795138889 9.44325086805555  29 11.8693576388889  29 14.5  C 29 17.1306423611111  28.3517795138889 19.5567491319444  27.0553385416667 21.7783203125  C 25.7588975694444 23.9998914930556  23.9998914930556 25.7588975694444  21.7783203125 27.0553385416667  C 19.5567491319444 28.3517795138889  17.1306423611111 29  14.5 29  C 11.8693576388889 29  9.44325086805556 28.3517795138889  7.2216796875 27.0553385416667  C 5.00010850694444 25.7588975694444  3.24110243055556 23.9998914930556  1.94466145833333 21.7783203125  C 0.648220486111111 19.5567491319444  0 17.1306423611111  0 14.5  C 0 11.8693576388889  0.648220486111111 9.44325086805555  1.94466145833333 7.2216796875  C 3.24110243055556 5.00010850694444  5.00010850694444 3.24110243055555  7.2216796875 1.94466145833333  Z M 16.7467447916667 23.9873046875  C 16.8600260416667 23.8677300347222  16.9166666666667 23.7198350694444  16.9166666666667 23.5436197916667  L 16.9166666666667 19.9563802083333  C 16.9166666666667 19.7801649305556  16.8600260416667 19.6322699652778  16.7467447916667 19.5126953125  C 16.6334635416667 19.3931206597222  16.4950086805556 19.3333333333333  16.3313802083333 19.3333333333333  L 12.7063802083333 19.3333333333333  C 12.5427517361111 19.3333333333333  12.3980034722222 19.3962673611111  12.2721354166667 19.5221354166667  C 12.1462673611111 19.6480034722222  12.0833333333333 19.7927517361111  12.0833333333333 19.9563802083333  L 12.0833333333333 23.5436197916667  C 12.0833333333333 23.7072482638889  12.1462673611111 23.8519965277778  12.2721354166667 23.9778645833333  C 12.3980034722222 24.1037326388889  12.5427517361111 24.1666666666667  12.7063802083333 24.1666666666667  L 16.3313802083333 24.1666666666667  C 16.4950086805556 24.1666666666667  16.6334635416667 24.1068793402778  16.7467447916667 23.9873046875  Z M 16.6806640625 17.3792317708333  C 16.8002387152778 17.2848307291667  16.8663194444444 17.1746961805556  16.87890625 17.048828125  L 17.21875 5.32421875  C 17.21875 5.17317708333333  17.1558159722222 5.05989583333333  17.0299479166667 4.984375  C 16.9040798611111 4.88368055555555  16.7530381944444 4.83333333333333  16.5768229166667 4.83333333333333  L 12.4231770833333 4.83333333333333  C 12.2469618055556 4.83333333333333  12.0959201388889 4.88368055555555  11.9700520833333 4.984375  C 11.8441840277778 5.05989583333333  11.78125 5.17317708333333  11.78125 5.32421875  L 12.1022135416667 17.048828125  C 12.1022135416667 17.1746961805556  12.1651475694444 17.2848307291667  12.291015625 17.3792317708333  C 12.4168836805556 17.4736328125  12.5679253472222 17.5208333333333  12.744140625 17.5208333333333  L 16.2369791666667 17.5208333333333  C 16.4131944444444 17.5208333333333  16.5610894097222 17.4736328125  16.6806640625 17.3792317708333  Z " fill-rule="nonzero" fill="#d9001b" stroke="none" transform="matrix(1 0 0 1 280 330 )" />
  </g>
</svg>